<svg width="104" height="24" viewBox="0 0 104 24" fill="none" xmlns="http://www.w3.org/2000/svg" aria-hidden="true">
  <path d="M18.473 9.605V3.914c0-.61-.496-1.098-1.098-1.098h-5.688c-.894 0-1.779.177-2.601.514a6.8 6.8 0 0 0-2.203 1.478l-.045.044a6.73 6.73 0 0 0-1.725 3.036 7 7 0 0 1 1.655-.221 6.74 6.74 0 0 1 4.131 1.354 6.7 6.7 0 0 1 2.327 3.16 6.8 6.8 0 0 1 .168 4 6.77 6.77 0 0 0 3.035-1.725l.044-.044a6.9 6.9 0 0 0 1.477-2.205 6.7 6.7 0 0 0 .514-2.602z" fill="#18e299"/>
  <path d="M4.943 9.51a6.74 6.74 0 0 1 1.93-4.674L2.142 9.57c-.018.018-.036.027-.053.044a6.74 6.74 0 0 0-1.966 4.303 6.77 6.77 0 0 0 1.137 4.268c.08.12.3.159.423.044l2.9-2.892a3.31 3.31 0 0 0 .758-3.465 6.7 6.7 0 0 1-.397-2.364m11.501 4.904a6.8 6.8 0 0 1-3.28 1.781 6.8 6.8 0 0 1-3.727-.229H9.42a3.32 3.32 0 0 0-3.464.75l-2.9 2.892a.27.27 0 0 0 .044.423 6.8 6.8 0 0 0 4.266 1.138 6.75 6.75 0 0 0 4.301-1.967l.044-.044 4.734-4.735z" fill="#0c8c5e"/>
  <path d="M96.236 23.5h-3.552l2.503-5.649-5.005-11.25h3.575l2.916 7.053a.299.299 0 0 0 .553-.001l2.894-7.051h3.599z" fill="#fff"/>
  <path d="M85.448 18.519V9.462h-2.407v-2.86h2.407v-1.55q0-2.121 1.287-3.336T90.001.5q1.215 0 2.073.262v2.884q-.572-.214-1.335-.214-1.072 0-1.549.476-.477.453-.477 1.55v1.144h3.361v2.86h-3.36v9.057zM80.12 4.647a2.03 2.03 0 0 1-1.453-.596 2.02 2.02 0 0 1-.62-1.477q0-.858.62-1.454.62-.62 1.453-.62.882 0 1.478.62.62.596.62 1.454t-.62 1.477q-.596.596-1.478.596M78.5 18.52V6.602h3.265v11.917zm-5.687-.002V.643h3.265v17.875zm-3.687.144q-2.002 0-3.29-1.096-1.263-1.12-1.263-3.218V9.462h-2.407v-2.86h2.407V3.289h3.266v3.313h3.36v2.86h-3.36v4.243q0 1.095.476 1.573.477.452 1.55.452.762 0 1.334-.214V18.4q-.858.262-2.073.262m-19.183-.142V6.601h3.266v.871c0 .147.2.213.298.102q1.092-1.235 3.11-1.235 2.145 0 3.36 1.43 1.24 1.406 1.24 3.766v6.983h-3.265v-6.435q0-1.312-.549-2.026-.547-.74-1.549-.739-1.191 0-1.93.858-.715.858-.715 2.527v5.815zM45.878 4.647a2.03 2.03 0 0 1-1.454-.596 2.02 2.02 0 0 1-.62-1.477q0-.858.62-1.454.62-.62 1.454-.62.882 0 1.478.62.62.596.62 1.454t-.62 1.477q-.596.596-1.478.596m-1.62 13.872V6.602h3.265v11.917zm-5.543.001v-6.365q0-2.836-1.86-2.836-1.071 0-1.715.81-.62.81-.668 2.408v5.982h-3.265v-6.364q0-2.836-1.86-2.836-1.095 0-1.739.858-.643.858-.643 2.527v5.815h-3.266V6.602h3.265v.88c0 .146.198.21.294.1Q28.34 6.34 30.134 6.34q2.36 0 3.553 1.947a.165.165 0 0 0 .28-.002 3.74 3.74 0 0 1 1.435-1.35q1.048-.595 2.121-.595 2.12 0 3.29 1.406 1.167 1.407 1.167 3.861v6.912z" fill="#fff"/>
</svg>
